<svg xmlns="http://www.w3.org/2000/svg" width="25" height="17" viewBox="0 0 25 17">
  <path id="ic_people_24px" d="M18.045,12.286a3.518,3.518,0,0,0,3.4-3.643A3.518,3.518,0,0,0,18.045,5a3.527,3.527,0,0,0-3.409,3.643A3.527,3.527,0,0,0,18.045,12.286Zm-9.091,0a3.518,3.518,0,0,0,3.4-3.643A3.518,3.518,0,0,0,8.955,5,3.527,3.527,0,0,0,5.545,8.643,3.527,3.527,0,0,0,8.955,12.286Zm0,2.429C6.307,14.714,1,16.135,1,18.964V22H16.909V18.964C16.909,16.135,11.6,14.714,8.955,14.714Zm9.091,0c-.33,0-.7.024-1.1.061a5.205,5.205,0,0,1,2.239,4.189V22H26V18.964C26,16.135,20.693,14.714,18.045,14.714Z" transform="translate(-1 -5)" fill="#dfa02f"/>
</svg>
